<svg width="24" height="24" viewBox="0 0 24 24" fill="none" xmlns="http://www.w3.org/2000/svg">
<path d="M5.59997 17.759C4.59997 16.899 3.68997 15.839 2.88997 14.589C1.98997 13.179 1.98997 10.809 2.88997 9.399C4.06997 7.549 5.50997 6.099 7.11997 5.129M17.82 5.77C16.07 4.45 14.07 3.73 12 3.73M8.42197 19.53C9.56197 20.01 10.772 20.27 12.002 20.27C15.532 20.27 18.822 18.19 21.112 14.59C22.012 13.18 22.012 10.81 21.112 9.4C20.782 8.88 20.422 8.39 20.052 7.93M14.532 9.472L9.47197 14.532C9.13972 14.1998 8.87617 13.8053 8.69636 13.3712C8.51655 12.9371 8.42401 12.4719 8.42401 12.002C8.42401 11.5321 8.51655 11.0669 8.69636 10.6328C8.87617 10.1987 9.13972 9.80424 9.47197 9.472C9.80421 9.13976 10.1986 8.8762 10.6327 8.6964C11.0668 8.51659 11.5321 8.42404 12.002 8.42404C12.4718 8.42404 12.9371 8.51659 13.3712 8.6964C13.8053 8.8762 14.1997 9.13976 14.532 9.472V9.472Z" stroke="white" stroke-width="1.5" stroke-linecap="round" stroke-linejoin="round"/>
<path d="M15.511 12.7C15.3755 13.3976 15.0347 14.0387 14.5322 14.5412C14.0297 15.0437 13.3886 15.3845 12.691 15.52M9.47 14.531L2 22.001M22.001 2L14.531 9.47" stroke="white" stroke-width="1.5" stroke-linecap="round" stroke-linejoin="round"/>
</svg>
