<svg width="24" height="24" viewBox="0 0 24 24" fill="none" xmlns="http://www.w3.org/2000/svg">
<path d="M18.0201 11.8V8.91C18.0201 5.61 15.3201 2.91 12.0201 2.91C8.71009 2.91 6.02009 5.6 6.02009 8.91V11.8C6.02009 12.41 5.76009 13.34 5.45009 13.86L4.30009 15.77C3.59009 16.95 4.08009 18.26 5.38009 18.7C9.69009 20.14 14.3401 20.14 18.6501 18.7C19.8601 18.3 20.3901 16.87 19.7301 15.77" stroke="#617D8A" stroke-width="1.5" stroke-miterlimit="10" stroke-linecap="round"/>
<path d="M13.8699 3.20101C12.6606 2.8566 11.3792 2.8566 10.1699 3.20101C10.4599 2.46101 11.1799 1.94101 12.0199 1.94101C12.8599 1.94101 13.5799 2.46101 13.8699 3.20101Z" stroke="#617D8A" stroke-width="1.5" stroke-miterlimit="10" stroke-linecap="round" stroke-linejoin="round"/>
<path d="M15.02 19.059C15.02 20.709 13.67 22.059 12.02 22.059C11.2 22.059 10.44 21.719 9.90002 21.179C9.33818 20.6163 9.02181 19.8542 9.02002 19.059" stroke="#617D8A" stroke-width="1.5" stroke-miterlimit="10"/>
</svg>
